<svg xmlns="http://www.w3.org/2000/svg" xmlns:xlink="http://www.w3.org/1999/xlink">
    <defs>
        <path id="a" d="M17 11.566c1.387 0 2.422.141 3.214.438V9.868c0-.375-.319-.679-.714-.679h-5c-.395 0-.714.304-.714.68v2.135c.792-.297 1.827-.438 3.214-.438M19.679 16a.548.548 0 0 0-.536-.558h-4.286a.548.548 0 0 0-.536.558c0 .307.241.557.536.557h4.286c.295 0 .536-.25.536-.557m-3.597 3.057h1.836c.296 0 .536-.25.536-.557a.547.547 0 0 0-.536-.558h-1.836a.547.547 0 0 0-.536.558c0 .307.24.557.536.557M19.679 21a.548.548 0 0 0-.536-.558h-4.286a.548.548 0 0 0-.536.558c0 .307.241.557.536.557h4.286c.295 0 .536-.25.536-.557m-3.597 3.057h1.836c.296 0 .536-.25.536-.557a.547.547 0 0 0-.536-.558h-1.836a.547.547 0 0 0-.536.558c0 .307.24.557.536.557M19.679 26a.548.548 0 0 0-.536-.558h-4.286a.548.548 0 0 0-.536.558c0 .307.241.557.536.557h4.286c.295 0 .536-.25.536-.557M17 30c-7.976 0-4.018-5.33-4.018-10.018 0-4.689-1.888-7.302 4.018-7.302s4.018 2.613 4.018 7.302C21.018 24.67 24.976 30 17 30m0-26c.592 0 .893.456.893 1.018 0 .58.188 1.081.725 1.716.369.436.346 1.341.346 1.341h-3.928s-.023-.905.346-1.34c.537-.636.725-1.137.725-1.717 0-.562.301-1.018.893-1.018"/>
    </defs>
    <g fill="none" fill-rule="evenodd">
        <path d="M0 0h34v34H0z"/>
        <mask id="b" fill="#fff">
            <use xlink:href="#a"/>
        </mask>
        <use fill="#222" xlink:href="#a"/>
        <g fill="#222" mask="url(#b)">
            <path d="M0 0h34v34H0z"/>
        </g>
    </g>
</svg>
