<svg xmlns="http://www.w3.org/2000/svg" xmlns:xlink="http://www.w3.org/1999/xlink">
    <defs>
        <path id="a" d="M24.684 10.893l-.547-.555-.921.935a8.506 8.506 0 0 1 2.14 5.65c0 4.705-3.786 8.518-8.457 8.518-4.671 0-8.458-3.813-8.458-8.518 0-4.327 3.207-7.893 7.354-8.438V6.923h-.926a.738.738 0 0 1-.735-.74c0-.41.329-.742.735-.742h4.059c.407 0 .736.332.736.742 0 .408-.33.74-.736.74h-.926v1.562a8.38 8.38 0 0 1 4.43 2.006l.928-.941-.556-.564a.744.744 0 0 1 .005-1.047.73.73 0 0 1 1.04.003l1.879 1.907a.745.745 0 0 1-.004 1.048.734.734 0 0 1-1.04-.004zm-7.785 7.734c.934 0 1.69-.763 1.69-1.704 0-.942-.756-1.704-1.69-1.704-.263 0-.508.065-.73.173-.005-.005-.006-.013-.012-.02l-3.492-3.551a.55.55 0 0 0-.781-.004.56.56 0 0 0-.003.786l3.493 3.552c.004.005.01.007.016.012a1.696 1.696 0 0 0 1.509 2.46zm0-2.542c.486 0 .88.397.88.888 0 .49-.394.887-.88.887a.884.884 0 0 1-.881-.887c0-.491.394-.888.88-.888z"/>
    </defs>
    <g fill="none" fill-rule="evenodd">
        <path d="M0 0h34v34H0z"/>
        <mask id="b" fill="#fff">
            <use xlink:href="#a"/>
        </mask>
        <use fill="#222" xlink:href="#a"/>
        <g fill="#222" mask="url(#b)">
            <path d="M0 0h34v34H0z"/>
        </g>
    </g>
</svg>
