<svg xmlns="http://www.w3.org/2000/svg" xmlns:xlink="http://www.w3.org/1999/xlink">
    <defs>
        <path id="a" d="M12.266 15.898l-.353-4.781L9.978 12 8 9.345s2.087-1.321 3.466-1.885c.411-.168 1.587-.358 2.276-.458v8.897h-1.476zm2.514-4.015V7.94c.424.573 1.152 1.176 2.35 1.176 1.075 0 1.712-.486 2.09-1v3.766h-4.44zm4.44 4.36c0 .382.31.692.692.692h1.867l1.482 9.274-4.108.791L17 22.136 14.848 27l-4.108-.79 1.48-9.275h1.868c.382 0 .693-.31.693-.692v-3.322h4.439v3.322zm3.314-8.785C23.847 7.961 26 9.344 26 9.344l-1.978 2.658-1.935-.886-.353 4.781h-1.476V7.003c.688.103 1.861.296 2.276.455z"/>
    </defs>
    <g fill="none" fill-rule="evenodd">
        <path d="M0 0h34v34H0z"/>
        <mask id="b" fill="#fff">
            <use xlink:href="#a"/>
        </mask>
        <use fill="#222" xlink:href="#a"/>
        <g fill="#222" mask="url(#b)">
            <path d="M0 0h34v34H0z"/>
        </g>
    </g>
</svg>
