<?xml version="1.0" encoding="UTF-8" standalone="no"?>
<svg width="16px" height="11px" viewBox="0 0 16 11" version="1.1" xmlns="http://www.w3.org/2000/svg" xmlns:xlink="http://www.w3.org/1999/xlink">
    <!-- Generator: sketchtool 3.8.3 (29802) - http://www.bohemiancoding.com/sketch -->
    <title>5F562299-F74F-416D-BDF9-F26FE8E03FD1</title>
    <desc>Created with sketchtool.</desc>
    <defs>
        <rect id="path-1" x="0" y="0" width="16" height="11"></rect>
        <rect id="path-3" x="0" y="0" width="16" height="11"></rect>
        <mask id="mask-4" maskContentUnits="userSpaceOnUse" maskUnits="objectBoundingBox" x="0" y="0" width="16" height="11" fill="white">
            <use xlink:href="#path-3"></use>
        </mask>
        <rect id="path-5" x="0" y="0" width="3" height="11"></rect>
        <mask id="mask-6" maskContentUnits="userSpaceOnUse" maskUnits="objectBoundingBox" x="0" y="0" width="3" height="11" fill="white">
            <use xlink:href="#path-5"></use>
        </mask>
    </defs>
    <g id="controls" stroke="none" stroke-width="1" fill="none" fill-rule="evenodd">
        <g id="иконки" transform="translate(-971.000000, -1734.000000)">
            <g id="белорусь" transform="translate(971.000000, 1734.000000)">
                <mask id="mask-2" fill="white">
                    <use xlink:href="#path-1"></use>
                </mask>
                <use id="Mask" fill="#E62D0A" xlink:href="#path-1"></use>
                <rect id="Rectangle-42-Copy" fill="#5D961D" mask="url(#mask-2)" x="0" y="7" width="16" height="4"></rect>
                <g id="Mask-Copy" mask="url(#mask-2)" stroke-opacity="0.08" stroke="#000000" stroke-width="2">
                    <use mask="url(#mask-4)" xlink:href="#path-3"></use>
                </g>
                <g id="Rectangle-50" mask="url(#mask-2)" stroke="#FFFFFF" stroke-opacity="0.45105865" stroke-width="2" fill="#FFFFFF" fill-opacity="1.49011614e-09">
                    <use mask="url(#mask-6)" xlink:href="#path-5"></use>
                </g>
                <path d="M0,10.7800121 L0,9.69974126 L0.177057312,9.69974126 L0.177057312,10.0598315 L0.400636439,10.0598315 L0.400636439,10.9960662 L0.847794694,10.9960662 L0.847794694,10.7800121 L1.07137382,10.7800121 L1.07137382,10.4199218 L1.29495295,10.4199218 L1.29495295,10.0598315 L1.51853208,10.0598315 L1.51853208,9.69974126 L1.74211121,9.69974126 L1.74211121,8.61947044 L1.51853208,8.61947044 L1.51853208,8.97956072 L1.29495295,8.97956072 L1.29495295,9.33965098 L1.07137382,9.33965098 L1.07137382,9.69974126 L0.847794694,9.69974126 L0.847794694,9.33965098 L0.624215567,9.33965098 L0.624215567,8.97956072 L0.400636439,8.97956072 L0.400636439,8.61947044 L0.177057312,8.61947044 L0.177057312,8.25938018 L-8.67361738e-18,8.25938018 L0,7.17910935 L0.177057312,7.17910935 L0.177057312,6.81901907 L0.847794694,6.81901907 L0.847794694,7.17910935 L0.400636439,7.17910935 L0.400636439,7.53919962 L0.624215567,7.53919962 L0.624215567,7.8992899 L0.847794694,7.8992899 L0.847794694,8.25938018 L1.07137382,8.25938018 L1.07137382,7.8992899 L1.29495295,7.8992899 L1.29495295,7.53919962 L1.51853208,7.53919962 L1.51853208,7.17910935 L1.74211121,7.17910935 L1.74211121,6.45892879 L1.51853208,6.45892879 L1.51853208,6.09883853 L1.29495295,6.09883853 L1.29495295,5.73874825 L1.07137382,5.73874825 L1.07137382,5.37865799 L0.847794694,5.37865799 L0.847794694,5.01856771 L0.624215567,5.01856771 L0.624215567,4.65847743 L0.400636439,4.65847743 L0.400636439,5.01856771 L0.177057312,5.01856771 L0.177057312,5.37865799 L-8.67361738e-18,5.37865799 L0,4.68117355 L0.177057312,4.68117355 L0.177057312,4.32108327 L0.400636439,4.32108327 L0.400636439,3.96099301 L0.177057312,3.96099301 L0.177057312,3.60090273 L1.21430643e-17,3.60090273 L0,2.88072219 L0.177057312,2.88072219 L0.177057312,3.24081245 L0.400636439,3.24081245 L0.400636439,3.60090273 L0.624215567,3.60090273 L0.624215567,3.24081245 L0.847794694,3.24081245 L0.847794694,2.88072219 L1.07137382,2.88072219 L1.07137382,2.52063191 L1.29495295,2.52063191 L1.29495295,2.16054164 L1.51853208,2.16054164 L1.51853208,1.80045136 L1.74211121,1.80045136 L1.74211121,1.44036109 L1.51853208,1.44036109 L1.51853208,1.08027082 L1.29495295,1.08027082 L1.29495295,0.720180545 L1.07137382,0.720180545 L1.07137382,0.360090273 L0.847794694,0.360090273 L0.847794694,0 L0.177057312,0 L0.177057312,0.360090273 L6.9388939e-18,0.360090273 L0,0 L2.82610265,0 L2.65220531,0 L2.65220531,0.360090273 L2.42862618,0.360090273 L2.42862618,0.720180545 L2.20504705,0.720180545 L2.20504705,1.08027082 L1.98146792,1.08027082 L1.98146792,1.44036109 L1.75788879,1.44036109 L1.75788879,1.80045136 L1.98146792,1.80045136 L1.98146792,2.16054164 L2.20504705,2.16054164 L2.20504705,2.52063191 L2.42862618,2.52063191 L2.42862618,2.88072219 L2.65220531,2.88072219 L2.65220531,3.24081245 L2.87578443,3.24081245 L2.87578443,3.60090273 L3,3.60090273 L3,4.65847743 L2.87578443,4.65847743 L2.87578443,5.01856771 L2.65220531,5.01856771 L2.65220531,5.37865799 L2.42862618,5.37865799 L2.42862618,5.73874825 L2.20504705,5.73874825 L2.20504705,6.09883853 L1.98146792,6.09883853 L1.98146792,6.45892879 L1.75788879,6.45892879 L1.75788879,7.17910935 L1.98146792,7.17910935 L1.98146792,7.53919962 L2.20504705,7.53919962 L2.20504705,7.8992899 L2.42862618,7.8992899 L2.42862618,8.25938018 L2.65220531,8.25938018 L2.65220531,7.8992899 L2.87578443,7.8992899 L2.87578443,7.53919962 L3,7.53919962 L3,8.97956072 L2.87578443,8.97956072 L2.87578443,9.33965098 L2.65220531,9.33965098 L2.65220531,9.69974126 L2.42862618,9.69974126 L2.42862618,9.33965098 L2.20504705,9.33965098 L2.20504705,8.97956072 L1.98146792,8.97956072 L1.98146792,8.61947044 L1.75788879,8.61947044 L1.75788879,9.69974126 L1.98146792,9.69974126 L1.98146792,10.0598315 L2.20504705,10.0598315 L2.20504705,10.4199218 L2.42862618,10.4199218 L2.42862618,10.7800121 L2.65220531,10.7800121 L2.65220531,10.9960662 L3,10.9960662 L3,11 L0,11 L0,10.9960662 L0.177057312,10.9960662 L0.177057312,10.7800121 L5.20417043e-18,10.7800121 Z M3,7.17910935 L3,6.81901907 L2.65220531,6.81901907 L2.65220531,7.17910935 L3,7.17910935 Z M1.75788879,0.360090273 L1.98146792,0.360090273 L1.98146792,0.720180545 L1.75788879,0.720180545 L1.75788879,0.360090273 Z M1.75788879,2.52063191 L1.98146792,2.52063191 L1.98146792,2.88072219 L1.75788879,2.88072219 L1.75788879,2.52063191 Z M2.20504705,3.24081245 L2.42862618,3.24081245 L2.42862618,3.60090273 L2.65220531,3.60090273 L2.65220531,3.96099301 L2.87578443,3.96099301 L2.87578443,4.32108327 L2.65220531,4.32108327 L2.65220531,4.68117355 L2.42862618,4.68117355 L2.42862618,5.04126381 L2.20504705,5.04126381 L2.20504705,4.68117355 L1.98146792,4.68117355 L1.98146792,4.32108327 L1.75788879,4.32108327 L1.75788879,3.96099301 L1.98146792,3.96099301 L1.98146792,3.60090273 L2.20504705,3.60090273 L2.20504705,3.24081245 Z M1.75788879,5.40135409 L1.98146792,5.40135409 L1.98146792,5.76144437 L1.75788879,5.76144437 L1.75788879,5.40135409 Z M1.75788879,7.8992899 L1.98146792,7.8992899 L1.98146792,8.25938018 L1.75788879,8.25938018 L1.75788879,7.8992899 Z M1.74211121,0.360090273 L1.51853208,0.360090273 L1.51853208,0.720180545 L1.74211121,0.720180545 L1.74211121,0.360090273 Z M1.74211121,2.52063191 L1.51853208,2.52063191 L1.51853208,2.88072219 L1.74211121,2.88072219 L1.74211121,2.52063191 Z M1.29495295,3.24081245 L1.07137382,3.24081245 L1.07137382,3.60090273 L0.847794694,3.60090273 L0.847794694,3.96099301 L0.624215567,3.96099301 L0.624215567,4.32108327 L0.847794694,4.32108327 L0.847794694,4.68117355 L1.07137382,4.68117355 L1.07137382,5.04126381 L1.29495295,5.04126381 L1.29495295,4.68117355 L1.51853208,4.68117355 L1.51853208,4.32108327 L1.74211121,4.32108327 L1.74211121,3.96099301 L1.51853208,3.96099301 L1.51853208,3.60090273 L1.29495295,3.60090273 L1.29495295,3.24081245 Z M1.74211121,5.40135409 L1.51853208,5.40135409 L1.51853208,5.76144437 L1.74211121,5.76144437 L1.74211121,5.40135409 Z M1.74211121,7.8992899 L1.51853208,7.8992899 L1.51853208,8.25938018 L1.74211121,8.25938018 L1.74211121,7.8992899 Z" id="Rectangle-50-Copy-2" fill-opacity="0.789999962" fill="#FFFFFF" mask="url(#mask-2)"></path>
                <g id="right-copy-+-left-copy" mask="url(#mask-2)">
                    <g transform="translate(-1.000000, 0.000000)">
                        <g></g>
                    </g>
                </g>
            </g>
        </g>
    </g>
</svg>