<svg xmlns="http://www.w3.org/2000/svg" xmlns:xlink="http://www.w3.org/1999/xlink">
    <defs>
        <path id="a" d="M13.703 21.395a.552.552 0 0 1 .677-.35c.29.08.455.368.37.64l-1.847 5.939c.995.234 2.108.35 3.551.373v-6.282c0-.285.245-.515.546-.515.301 0 .545.23.545.515v6.282c1.444-.023 2.556-.14 3.553-.372v-.002l-1.848-5.938a.512.512 0 0 1 .37-.64.553.553 0 0 1 .677.35l1.845 5.934c.794-.268 1.561-.62 2.431-1.073l-4.06-9.076h-7.025l-4.06 9.076c.87.453 1.636.805 2.43 1.073l1.845-5.934zm-.18-5.264l-1.094-4.91s-.01.188-.66.528c-.65.342-1.187.319-1.187.319L9 9.53s.22-2.537 3.21-2.537c.746-.861 1.933-.997 1.933-.997S14.803 8.49 17 8.49c2.198 0 2.857-2.492 2.857-2.492s1.187.136 1.934.998c2.99 0 3.21 2.535 3.21 2.535l-1.584 2.538s-.536.024-1.186-.319c-.65-.34-.66-.527-.66-.527l-1.093 4.91h-6.956z"/>
    </defs>
    <g fill="none" fill-rule="evenodd">
        <path d="M0 0h34v34H0z"/>
        <mask id="b" fill="#fff">
            <use xlink:href="#a"/>
        </mask>
        <use fill="#222" xlink:href="#a"/>
        <g fill="#222" mask="url(#b)">
            <path d="M0 0h34v34H0z"/>
        </g>
    </g>
</svg>
