<?xml version="1.0" encoding="UTF-8"?>
<svg width="22px" height="21px" viewBox="0 0 22 21" version="1.1" xmlns="http://www.w3.org/2000/svg" xmlns:xlink="http://www.w3.org/1999/xlink">
    <!-- Generator: Sketch 52.6 (67491) - http://www.bohemiancoding.com/sketch -->
    <title>favorites/24 active white contur</title>
    <desc>Created with Sketch.</desc>
    <defs>
        <path d="M12,20 C12.7466722,19.2667211 16.5450918,15.7082205 19.2084896,13.0917934 C21.5946378,10.7470992 21.5435919,7.32946004 19.3746392,5.20954474 C17.2046857,3.08863042 14.1619463,3.98874525 12.0030027,6.12064877 C9.84606086,3.98874525 6.79531435,3.08863042 4.62536079,5.20954474 C2.45640813,7.32946004 2.40536218,10.7470992 4.79151037,13.0917934 C7.45490816,15.7082205 11.2543287,19.2667211 12,20 L12,20 Z" id="path-1"></path>
    </defs>
    <g id="MW_Catalogue" stroke="none" stroke-width="1" fill="none" fill-rule="evenodd">
        <g id="MW_catalogue_bigproductcard+3prices" transform="translate(-131.000000, -178.000000)" stroke-width="1.5">
            <g id="favorites/24-active-white-contur" transform="translate(130.000000, 176.000000)">
                <g id="heart-copy-2">
                    <path stroke="#E83841" d="M12.0001304,18.9617803 C13.066649,17.945074 15.4223152,15.7071893 16.3563183,14.8111479 C16.4498864,14.7213653 16.4498864,14.7213653 16.5434085,14.6315546 C17.3492119,13.857568 18.0623741,13.1663474 18.6828267,12.5568369 C20.7286797,10.546526 20.7585824,7.61093727 18.8504044,5.7459008 C17.1815115,4.11472361 14.657192,4.55374129 12.5299803,6.6543103 L12.0027582,7.17492906 L11.4757777,6.65406584 C9.35133078,4.55428007 6.81879391,4.11442509 5.14959301,5.74590337 C3.24141761,7.61093727 3.27132029,10.546526 5.3171017,12.5567666 C5.93745017,13.1661748 6.65048897,13.8572269 7.45670386,14.6315272 C7.55043385,14.721528 7.55043385,14.721528 7.64421015,14.8115005 C8.5629442,15.6927958 10.9294741,17.9408764 12.0001304,18.9617803 Z" stroke-linejoin="square" fill="#E83841" fill-rule="evenodd"></path>
                    <path stroke="#FFFFFF" d="M12.0031564,5.10175376 C14.5649995,2.90808162 17.7031908,2.52712613 19.8988714,4.67318611 C22.4136139,7.13107333 22.3738689,11.0328927 19.734081,13.6268203 C19.1090879,14.2407912 18.3920522,14.935766 17.5824964,15.7133569 C17.4886408,15.8034879 17.4886408,15.8034879 17.3947532,15.8935771 C16.2052968,17.0346892 12.760469,20.3043623 12.5255092,20.5351076 L11.9996474,21.0515368 L11.4741321,20.5347551 C11.2320718,20.2967176 7.77458421,17.0151092 6.60583521,15.8939872 C6.51173799,15.8037068 6.51173799,15.8037068 6.41767292,15.7133843 C5.60768841,14.9354636 4.89075903,14.2406408 4.26584747,13.62675 C1.62613107,11.0328927 1.58638611,7.13107333 4.10112594,4.67318867 C6.29691977,2.52701805 9.4425944,2.90846312 12.0031564,5.10175376 Z"></path>
                </g>
            </g>
        </g>
    </g>
</svg>