<?xml version="1.0" encoding="UTF-8"?>
<svg width="32px" height="31px" viewBox="0 0 32 31" version="1.1" xmlns="http://www.w3.org/2000/svg" xmlns:xlink="http://www.w3.org/1999/xlink">
    <!-- Generator: Sketch 52.5 (67469) - http://www.bohemiancoding.com/sketch -->
    <title>heart_empty</title>
    <desc>Created with Sketch.</desc>
    <defs>
        <path d="M26.4122628,17.0694531 C29.8589213,13.6989551 29.7851883,8.78609881 26.6522566,5.73872056 C23.5178793,2.68990622 19.1228114,3.9838213 16.0043372,7.04843261 C12.8887546,3.9838213 8.48212072,2.68990622 5.34774336,5.73872056 C2.21481174,8.78609881 2.1410787,13.6989551 5.5877372,17.0694531 C9.43486734,20.8305669 14.9229192,25.9459116 16,27 C17.0785265,25.9459116 22.5651327,20.8305669 26.4122628,17.0694531 Z" id="path-1"></path>
    </defs>
    <g id="MW_NEW_PP" stroke="none" stroke-width="1" fill="none" fill-rule="evenodd">
        <g id="MW_PP" transform="translate(-272.000000, -81.000000)">
            <g id="heart_empty" transform="translate(272.000000, 80.000000)">
                <rect id="Rectangle" fill-rule="nonzero" x="0" y="0" width="32" height="32"></rect>
                <g id="сердечко">
                    <use fill="#FFFFFF" fill-rule="evenodd" xlink:href="#path-1"></use>
                    <path stroke="#FFFFFF" stroke-width="3" d="M16.004593,5.03804115 C19.8040046,1.95774501 24.4262752,1.48093801 27.698134,4.6634808 C31.5025238,8.36398124 31.4422921,14.2485858 27.461008,18.1418959 L27.4608645,18.1420362 C26.5568455,19.0258426 25.5200429,20.0259149 24.349634,21.1447059 C24.2139715,21.2743584 24.2139715,21.2743584 24.0782667,21.403947 C22.3578478,23.046506 17.3848051,27.7439977 17.048437,28.0727441 L15.9992966,29.0981122 L14.9508439,28.0720408 C14.6043347,27.7329286 9.61322506,23.0184871 7.92260004,21.4045526 C7.78659202,21.2746888 7.78659202,21.2746888 7.65062647,21.1447605 C6.47959362,20.0254909 5.44293981,19.0256327 4.53899205,18.1418959 C0.55770787,14.2485858 0.497476167,8.36398124 4.30186074,4.66348591 C7.57380876,1.48085635 12.206441,1.95824315 16.004593,5.03804115 Z"></path>
                    <path stroke="#222222" stroke-width="3" d="M25.3635894,15.9969401 C28.1502788,13.2717609 28.1906264,9.32763743 25.606374,6.81395521 C23.3835646,4.65182464 19.984456,5.2401394 17.0557178,8.11829194 L16.0038495,9.15199217 L14.9524607,8.11780424 C12.027731,5.24092357 8.61689959,4.65137308 6.39362072,6.81396032 C3.80935143,9.32765899 3.84972186,13.2718286 6.63633889,15.99687 C7.53114015,16.8716648 8.55999594,17.8640018 9.72347333,18.9760498 C9.85876731,19.1053364 9.85876731,19.1053364 9.99413214,19.234586 C11.242396,20.426226 14.3493772,23.3641727 16.000218,24.929536 C17.6446821,23.3705083 20.7377623,20.4455236 22.0066144,19.2340951 C22.1416789,19.1051181 22.1416789,19.1051181 22.276673,18.9761044 C23.4395297,17.8645324 24.4685447,16.8719721 25.3635894,15.9969401 Z M25.3635894,15.9969401 C25.3636133,15.9969167 25.3636372,15.9968933 25.3636611,15.99687 L25.3635177,15.9970102 C25.3635416,15.9969869 25.3635655,15.9969635 25.3635894,15.9969401 Z" stroke-linejoin="square"></path>
                </g>
            </g>
        </g>
    </g>
</svg>