<svg width="32px" height="31px" viewBox="0 0 32 31" version="1.1" xmlns="http://www.w3.org/2000/svg" xmlns:xlink="http://www.w3.org/1999/xlink">
    <g stroke="none" stroke-width="1" fill="none" fill-rule="evenodd">
        <g transform="translate(-272.000000, -81.000000)">
            <g transform="translate(272.000000, 80.000000)">
                <rect fill-rule="nonzero" x="0" y="0" width="32" height="32"></rect>
                <path d="M16.004593,5.03804115 C19.8040046,1.95774501 24.4262752,1.48093801 27.698134,4.6634808 C31.5025238,8.36398124 31.4422921,14.2485858 27.461008,18.1418959 L27.4608645,18.1420362 C26.5568455,19.0258426 25.5200429,20.0259149 24.349634,21.1447059 C24.2139715,21.2743584 24.2139715,21.2743584 24.0782667,21.403947 C22.3578478,23.046506 17.3848051,27.7439977 17.048437,28.0727441 L15.9992966,29.0981122 L14.9508439,28.0720408 C14.6043347,27.7329286 9.61322506,23.0184871 7.92260004,21.4045526 C7.78659202,21.2746888 7.78659202,21.2746888 7.65062647,21.1447605 C6.47959362,20.0254909 5.44293981,19.0256327 4.53899205,18.1418959 C0.55770787,14.2485858 0.497476167,8.36398124 4.30186074,4.66348591 C7.57380876,1.48085635 12.206441,1.95824315 16.004593,5.03804115 Z" stroke="#FFFFFF" stroke-width="3" fill="#e83841"></path>
            </g>
        </g>
    </g>
</svg>