<svg xmlns="http://www.w3.org/2000/svg" xmlns:xlink="http://www.w3.org/1999/xlink">
    <defs>
        <path id="a" d="M23.4 21.4L21.333 27H26v-5.6h-2.6zm-.333-1.126H26V8.25h-1.313v1.752a.562.562 0 0 1-1.125 0V8.25H22.25v1.752a.563.563 0 0 1-1.125 0V8.25h-1.313v1.752a.562.562 0 0 1-1.125 0V8.25H17s.585 4.877 2.322 7.863c1.337 2.297 2.904 3.584 3.745 4.161zM15.312 8.25v1.752a.562.562 0 0 1-1.125 0V8.25h-1.312v1.752a.563.563 0 0 1-1.125 0V8.25h-1.313v1.752a.562.562 0 0 1-1.125 0V8.25H8v12.024h2.932c.842-.577 2.408-1.864 3.745-4.16C16.414 13.126 17 8.25 17 8.25h-1.688zM8 21.4V27h4.666L10.6 21.4H8zM26.473 7.25H7.526c-.29 0-.526-.28-.526-.625S7.235 6 7.526 6h18.947c.291 0 .527.28.527.625 0 .344-.236.625-.527.625z"/>
    </defs>
    <g fill="none" fill-rule="evenodd">
        <path d="M0 0h34v34H0z"/>
        <mask id="b" fill="#fff">
            <use xlink:href="#a"/>
        </mask>
        <use fill="#222" xlink:href="#a"/>
        <g fill="#222" mask="url(#b)">
            <path d="M0 0h34v34H0z"/>
        </g>
    </g>
</svg>
