<svg xmlns="http://www.w3.org/2000/svg" xmlns:xlink="http://www.w3.org/1999/xlink">
    <defs>
        <path id="a" d="M18.5 17c0-.519-.263-.975-.663-1.245l.63-3.739a.6.6 0 0 0-1.184-.199l-.627 3.726c-.514.122-.92.506-1.079 1.004l-2.843.272a.6.6 0 0 0 .115 1.195l2.854-.274c.258.452.739.76 1.297.76a1.5 1.5 0 0 0 1.5-1.5m4.875 0a6.375 6.375 0 1 1-12.75 0 6.375 6.375 0 0 1 12.75 0m-5.625 0a.75.75 0 1 1-1.5 0 .75.75 0 0 1 1.5 0m8.88 4.342l-2.47-2.47c-.311 1.307-1.011 2.442-1.929 3.359-.917.918-2.052 1.618-3.359 1.929l2.47 2.47a1.272 1.272 0 0 0 1.795 0l3.493-3.493a1.272 1.272 0 0 0 0-1.795M9.825 15.113L7.37 12.658a1.272 1.272 0 0 1 0-1.795l3.493-3.493a1.272 1.272 0 0 1 1.795 0l2.455 2.455c-1.307.31-2.435 1.018-3.353 1.935-.917.918-1.625 2.046-1.935 3.353"/>
    </defs>
    <g fill="none" fill-rule="evenodd">
        <path d="M0 0h34v34H0z"/>
        <mask id="b" fill="#fff">
            <use xlink:href="#a"/>
        </mask>
        <use fill="#222" xlink:href="#a"/>
        <g fill="#222" mask="url(#b)">
            <path d="M0 0h34v34H0z"/>
        </g>
    </g>
</svg>
