<svg xmlns="http://www.w3.org/2000/svg" xmlns:xlink="http://www.w3.org/1999/xlink">
    <defs>
        <path id="a" d="M30.741 19.559l-.095.005-.032.02c-.043.026-1.058.647-3.495 1.475-1.767.603-4.15.956-5.28 1.069-.388.039-.763.057-1.127.057-2.478 0-4.452-.832-6.079-1.52l-.252-.105c-1.744-.73-4.899-.868-6.415-.935l-.09-.004c-3.263-.144-4.376.007-4.7.078-.03.636-.073 1.525-.09 1.955-.027.712-.119 1.256 2.143 1.369 1.857.093 6.058.029 6.058.029l.07-1.86s1.465.139 2.956.696c1.48.553 3.256 1.563 5.282 1.609 2.955.068 6.88-.895 9.112-1.874C30.245 20.95 31 20.286 31 20.286l-.259-.727zm-16.127-5.254l.837.637 1.17-2.034c.343.26.697.527 1.052.787l-1.17 2.037.836.637 1.186-2.063c.362.253.715.49 1.05.705l-1.194 2.075.837.637 1.252-2.177c2.367 1.287 3.617 1.706 5.065 1.78 1.43.07 2.857.086 3.515.192.698.113 1.115.837 1.323 1.34l-.077.048c-.01.007-1.009.613-3.366 1.416-1.717.584-4.045.928-5.15 1.04-2.869.289-5.113-.657-6.917-1.418l-.253-.107c-1.842-.773-5.069-.914-6.619-.98l-.089-.005c-2.865-.125-4.14-.03-4.7.064-.044-.264-.24-1.504-.195-2.696.05-1.341.63-2.792.63-2.792s-.12-1.213.363-1.381c.483-.167 1.261 1.984 3.951 2.118 2.904.146 4.636-1.467 4.636-1.467s.165-.768.4-1.277c.233-.51.613-.921.613-.921s.942.788 2.188 1.763l-1.174 2.042z"/>
    </defs>
    <g fill="none" fill-rule="evenodd">
        <path d="M0 0h34v34H0z"/>
        <mask id="b" fill="#fff">
            <use xlink:href="#a"/>
        </mask>
        <use fill="#222" xlink:href="#a"/>
        <g fill="#222" mask="url(#b)">
            <path d="M0 0h34v34H0z"/>
        </g>
    </g>
</svg>
