<svg xmlns="http://www.w3.org/2000/svg" xmlns:xlink="http://www.w3.org/1999/xlink">
    <defs>
        <path id="a" d="M18.5 14l1.5-1.5 1.5 1.5h-3zm-1.5-.299s-1.188-2.602-1.604-4.418c-.416-1.816-.416-2.935-.416-2.935L17 6.317l2.02.031s0 1.119-.416 2.935S17 13.701 17 13.701zm8.852 8.867c-.198-4.432-.546-10.261-.654-11.106-.178-1.393-.891-3.178-.891-3.178l-4.069-1.482s-1.01-1.272-1.426-1.272C18.396 5.53 17 5.5 17 5.5s-1.396.03-1.812.03c-.416 0-1.426 1.272-1.426 1.272L9.693 8.284s-.713 1.785-.891 3.178c-.108.845-.456 6.674-.654 11.106A164.387 164.387 0 0 0 8 27.713s.624.212 1.069.242c.446.03 1.099-.121 1.099-.121s.505-5.205.684-6.899c.178-1.696.386-6.295.386-6.295s.415 1.543.534 2.875c.104 1.165.138 1.984.145 2.48l.026.025c.015.013.315.29.888.479.634.209 1.543.248 1.551.248l.403.016-.032.821-.402-.016c-.042-.002-1.03-.044-1.769-.288a3.664 3.664 0 0 1-.718-.327c-.164 1.812-.626 6.215-.626 6.215s1.514 1.332 3.534 1.332c1.693 0 2.228-.938 2.228-.938s.535.938 2.228.938c2.02 0 3.534-1.332 3.534-1.332s-.484-4.617-.637-6.339a3.523 3.523 0 0 1-.92.451c-.741.244-1.728.286-1.769.288l-.403.016-.032-.82.403-.017c.009 0 .92-.04 1.552-.248.585-.193.885-.477.888-.479l.241-.231c.015-.51.053-1.271.143-2.274.119-1.332.534-2.875.534-2.875s.208 4.599.386 6.295c.179 1.694.684 6.899.684 6.899s.653.151 1.099.121c.445-.03 1.069-.242 1.069-.242s-.021-2.27-.148-5.145z"/>
    </defs>
    <g fill="none" fill-rule="evenodd">
        <path d="M0 0h34v34H0z"/>
        <mask id="b" fill="#fff">
            <use xlink:href="#a"/>
        </mask>
        <use fill="#222" xlink:href="#a"/>
        <g fill="#222" mask="url(#b)">
            <path d="M0 0h34v34H0z"/>
        </g>
    </g>
</svg>
