<svg xmlns="http://www.w3.org/2000/svg" xmlns:xlink="http://www.w3.org/1999/xlink">
    <defs>
        <path id="a" d="M13.5 24.5a1 1 0 1 0-2 0 1 1 0 0 0 2 0zm1.5 0a2.5 2.5 0 1 1-5 0 2.5 2.5 0 0 1 5 0zm7.5 0a1 1 0 1 0-2 0 1 1 0 0 0 2 0zm1.5 0a2.5 2.5 0 1 1-5 0 2.5 2.5 0 0 1 5 0zm3.942-13.48A3.985 3.985 0 0 0 23.961 15H9c0 3.866 3.582 7 8 7s8-3.134 8-7a2.946 2.946 0 0 1 2.942-2.942.52.52 0 0 0 0-1.038zM16 14H9c0-3.59 3.134-6.5 7-6.5V14z"/>
    </defs>
    <g fill="none" fill-rule="evenodd">
        <path d="M0 0h34v34H0z"/>
        <mask id="b" fill="#fff">
            <use xlink:href="#a"/>
        </mask>
        <use fill="#222" xlink:href="#a"/>
        <g fill="#222" mask="url(#b)">
            <path d="M0 0h34v34H0z"/>
        </g>
    </g>
</svg>
