<svg xmlns="http://www.w3.org/2000/svg" xmlns:xlink="http://www.w3.org/1999/xlink">
    <defs>
        <path id="a" d="M22.043 19.5l-.757-3.09-.751 3.09h-.977L18.321 15h1.03l.757 3.252L20.93 15h.718l.816 3.252.75-3.252h1.036l-1.229 4.5h-.978zm-7.074 0V15h3.054v.844h-2.135v.951h2.091v.843h-2.091v1.018h2.135v.844h-3.054zm-1.741 0l-2.059-2.935V19.5h-.919V15h.945l2 2.827V15h.919v4.5h-.886zM25.497 17L27 15.011l-2.15-1.263.628-2.413-2.47-.343-.343-2.47-2.414.628L18.989 7 17 8.503 15.011 7l-1.262 2.15-2.414-.628-.343 2.47-2.47.343.628 2.413L7 15.011 8.503 17 7 18.989l2.15 1.263-.628 2.412 2.47.344.343 2.47 2.414-.628L15.011 27 17 25.496 18.989 27l1.262-2.15 2.414.628.343-2.47 2.47-.344-.628-2.412L27 18.989 25.497 17z"/>
    </defs>
    <g fill="none" fill-rule="evenodd">
        <path d="M0 0h34v34H0z"/>
        <mask id="b" fill="#fff">
            <use xlink:href="#a"/>
        </mask>
        <use fill="#222" xlink:href="#a"/>
        <g fill="#222" mask="url(#b)">
            <path d="M0 0h34v34H0z"/>
        </g>
    </g>
</svg>
