<svg xmlns="http://www.w3.org/2000/svg" width="14" height="14" viewBox="0 0 14 14">
    <g fill="none" fill-rule="evenodd">
        <circle cx="7" cy="7" r="7" fill="#777"/>
        <path fill="#FFF" d="M6.457 9.94v1.332h1.332V9.94H6.457zM4.5 5.38h1.02c0-.28.032-.54.096-.78s.166-.448.306-.624c.14-.176.314-.316.522-.42.208-.104.456-.156.744-.156.432 0 .774.124 1.026.372s.394.592.426 1.032c.016.296-.02.548-.108.756a2.158 2.158 0 0 1-.354.57 5.56 5.56 0 0 1-.48.492 5.413 5.413 0 0 0-.492.51 2.714 2.714 0 0 0-.396.63c-.108.236-.17.522-.186.858v.564h1.02v-.468c0-.208.03-.394.09-.558.06-.164.14-.316.24-.456.1-.14.212-.272.336-.396.124-.124.25-.246.378-.366.128-.128.254-.26.378-.396a2.78 2.78 0 0 0 .33-.444 2.274 2.274 0 0 0 .324-1.2c0-.384-.062-.724-.186-1.02a2.092 2.092 0 0 0-.522-.75 2.3 2.3 0 0 0-.798-.468A3.084 3.084 0 0 0 7.189 2.5c-.416 0-.792.072-1.128.216-.336.144-.62.346-.852.606-.232.26-.41.566-.534.918A3.215 3.215 0 0 0 4.5 5.38z"/>
    </g>
</svg>
