<svg xmlns="http://www.w3.org/2000/svg" xmlns:xlink="http://www.w3.org/1999/xlink">
    <defs>
        <path id="a" d="M25.434 16.938l1.504 1.989-2.151 1.262.628 2.413-2.47.343-.343 2.47-2.413-.627-1.262 2.15-1.99-1.505-1.988 1.505-1.263-2.15-2.413.628-.343-2.47-2.47-.345.628-2.412-2.15-1.262 1.503-1.99-1.503-1.989 2.15-1.263-.628-2.412 2.47-.343.343-2.47 2.413.627 1.263-2.15 1.989 1.503 1.989-1.502 1.262 2.15 2.413-.628.344 2.47 2.469.343-.628 2.412 2.15 1.263-1.503 1.99zm-3.794 3.918a2.239 2.239 0 0 0 .685-1.647c0-.642-.23-1.19-.685-1.645a2.254 2.254 0 0 0-1.651-.683c-.645 0-1.195.227-1.651.68a2.235 2.235 0 0 0-.684 1.648c0 .643.228 1.192.684 1.646a2.252 2.252 0 0 0 1.65.683c.645 0 1.196-.227 1.652-.683zm-1.651-2.641c.276 0 .51.097.706.29a.955.955 0 0 1 .292.705c0 .276-.097.51-.292.704a.96.96 0 0 1-.706.29.962.962 0 0 1-.707-.29.959.959 0 0 1-.292-.704c0-.275.098-.511.292-.704a.966.966 0 0 1 .707-.291zm-5.118 3.38l5.07-9.314h-.95l-5.092 9.313h.972zm-2.635-5.296a2.252 2.252 0 0 0 1.65.683c.65 0 1.2-.229 1.655-.683a2.245 2.245 0 0 0 .68-1.646c0-.644-.227-1.193-.683-1.646a2.254 2.254 0 0 0-1.651-.682c-.645 0-1.195.227-1.651.682a2.239 2.239 0 0 0-.685 1.646c0 .643.229 1.19.685 1.646zm1.65-2.642a.97.97 0 0 1 .707.291.96.96 0 0 1 .292.704.961.961 0 0 1-.292.705.966.966 0 0 1-.707.291.962.962 0 0 1-.706-.29.957.957 0 0 1-.292-.706c0-.275.097-.51.292-.704a.966.966 0 0 1 .706-.29z"/>
    </defs>
    <g fill="none" fill-rule="evenodd">
        <path d="M0 0h34v34H0z"/>
        <mask id="b" fill="#fff">
            <use xlink:href="#a"/>
        </mask>
        <use fill="#F45057" xlink:href="#a"/>
        <g fill="#F45057" mask="url(#b)">
            <path d="M0 0h34v34H0z"/>
        </g>
    </g>
</svg>
