<svg xmlns="http://www.w3.org/2000/svg" width="19" height="18" viewBox="0 0 19 18">
    <path fill="#222" fill-rule="evenodd" d="M1.838 0l3.02.374-1.837 15.09L0 15.092 1.838 0zM11.92 13.997c2.285.283 3.132-.385 3.413-2.687.28-2.302-.38-3.175-2.664-3.458-2.285-.283-3.135.404-3.416 2.706-.28 2.302.382 3.157 2.667 3.44zm4.229-8.283L19 6.067l-1.365 11.206-2.851-.353.132-1.084-.416-.052c-.527.553-1.776 1.21-3.324 1.018-3.399-.42-5.406-3.295-5-6.625.406-3.33 3.045-5.648 6.444-5.228 1.548.192 2.603 1.133 2.982 1.798l.415.051.132-1.084z"/>
</svg>
