<svg xmlns="http://www.w3.org/2000/svg" width="25" height="25" viewBox="0 0 25 25">
    <g fill="none" fill-rule="evenodd">
        <circle cx="12.5" cy="12.5" r="12" stroke="#666"/>
        <path fill="#666" d="M17.212 7.047c.491-.193.999.24.891.761l-2.204 10.634a.693.693 0 0 1-1.091.422l-3.329-2.465-1.696 1.747a.561.561 0 0 1-.94-.227L7.619 14l-3.281-.977c-.431-.129-.456-.734-.038-.899l12.912-5.076zm-1.62 2.36c.144-.128-.022-.355-.185-.253l-7.083 4.432c-.083.052-.187.052-.314 0l1.398 4.638.08-3.26a.326.326 0 0 1 .107-.206l5.998-5.351z"/>
    </g>
</svg>
