<svg xmlns="http://www.w3.org/2000/svg" width="25" height="25" viewBox="0 0 25 25">
    <g fill="none" fill-rule="evenodd">
        <circle cx="12.5" cy="12.5" r="12" stroke="#666"/>
        <path fill="#666" d="M17.046 13.466c-.354-.535-1.098-.696-1.661-.359a5.468 5.468 0 0 1-5.538 0c-.564-.337-1.308-.176-1.661.359-.355.534-.186 1.239.377 1.575a7.948 7.948 0 0 0 2.388.938l-2.3 2.18c-.47.447-.47 1.17 0 1.616.237.223.545.334.853.334.309 0 .617-.111.853-.334l2.258-2.142 2.26 2.142c.47.446 1.234.446 1.704 0a1.1 1.1 0 0 0 0-1.616l-2.3-2.18a7.938 7.938 0 0 0 2.389-.938c.563-.336.733-1.041.378-1.575zm-4.43-6.181c.939 0 1.703.724 1.703 1.615 0 .889-.764 1.614-1.703 1.614-.938 0-1.703-.725-1.703-1.614 0-.891.765-1.615 1.703-1.615zm0 5.513c2.269 0 4.113-1.748 4.113-3.898 0-2.151-1.844-3.9-4.113-3.9-2.268 0-4.113 1.749-4.113 3.9 0 2.15 1.845 3.898 4.113 3.898z"/>
    </g>
</svg>
