<svg xmlns="http://www.w3.org/2000/svg" width="25" height="25" viewBox="0 0 25 25">
    <g fill="none" fill-rule="evenodd">
        <circle cx="12.5" cy="12.5" r="12" stroke="#666"/>
        <path fill="#666" d="M19 12h1v1h-1v1h-1v-1h-1v-1h1v-1h1v1zm-7.91.286h4.808c.044.25.08.5.08.828 0 2.857-1.949 4.886-4.887 4.886C8.276 18 6 15.764 6 13s2.276-5 5.09-5c1.375 0 2.525.493 3.412 1.307l-1.382 1.307c-.378-.357-1.04-.771-2.03-.771A3.16 3.16 0 0 0 7.936 13a3.16 3.16 0 0 0 3.156 3.157c2.014 0 2.77-1.421 2.887-2.157h-2.887v-1.714z"/>
    </g>
</svg>
