<svg xmlns="http://www.w3.org/2000/svg" width="25" height="25" viewBox="0 0 25 25">
    <g fill="none" fill-rule="evenodd">
        <circle cx="12.5" cy="12.5" r="12" stroke="#666"/>
        <path fill="#666" d="M13.782 15.64c-.235.115-.562.173-.983.173h-1.795v-2.617h1.827c.417.005.741.06.971.167.413.191.62.542.62 1.052 0 .604-.215 1.012-.64 1.225zm-2.778-6.452h1.33c.466 0 .85.051 1.149.153.347.147.522.449.522.905 0 .413-.132.701-.395.863-.264.162-.606.243-1.028.243h-1.578V9.188zm6.31 3.67c-.459-.45-.784-.744-1.57-.888v-.058c.558-.227.992-.543 1.296-.95a2.29 2.29 0 0 0 .459-1.408c0-.456-.11-.865-.335-1.223-.223-.355-.56-.641-1.016-.852a4.631 4.631 0 0 0-1.332-.391C14.37 7.028 13.367 7 12.401 7H8v11h4.98c.868 0 1.587-.068 2.153-.207a4.73 4.73 0 0 0 1.557-.694c.406-.277.728-.622.961-1.044.233-.419.349-.893.349-1.425 0-.733-.23-1.323-.687-1.772z"/>
    </g>
</svg>
