<svg xmlns="http://www.w3.org/2000/svg" width="25" height="25" viewBox="0 0 25 25">
    <g fill="none" fill-rule="evenodd">
        <circle cx="12.5" cy="12.5" r="12" stroke="#666"/>
        <path fill="#666" d="M12.567 16.313a3.091 3.091 0 0 1-3.087-3.088c0-.469.013-.734.2-1.133H6v3.657A3.254 3.254 0 0 0 9.249 19h6.502A3.254 3.254 0 0 0 19 15.75v-3.658h-3.538c.187.399.19.664.19 1.133a3.092 3.092 0 0 1-3.085 3.088zm4.353-6.67c0 .2-.162.361-.361.361h-1.116a.362.362 0 0 1-.36-.36V8.527c0-.198.162-.361.36-.361h1.116c.199 0 .361.163.361.361v1.117zM9.25 6C7.458 6 6 7.549 6 9.452V11h4.114c.504-.382.582-1.033 2.386-1.033 1.804 0 1.995.651 2.5 1.033h4V9.452C19 7.55 17.542 6 15.751 6H9.25zm4.599 7.225c0-.707-.575-1.282-1.281-1.282a1.283 1.283 0 0 0 0 2.564c.706 0 1.28-.575 1.28-1.282z"/>
    </g>
</svg>
