<svg xmlns="http://www.w3.org/2000/svg" width="25" height="25" viewBox="0 0 25 25">
    <g fill="none" fill-rule="evenodd">
        <circle cx="12.5" cy="12.5" r="12" stroke="#666"/>
        <path fill="#666" d="M20.416 8.386c-.53.236-1.1.395-1.699.466a2.965 2.965 0 0 0 1.301-1.636 5.94 5.94 0 0 1-1.878.718 2.957 2.957 0 0 0-5.04 2.697 8.395 8.395 0 0 1-6.096-3.09 2.957 2.957 0 0 0 .915 3.949 2.962 2.962 0 0 1-1.34-.37v.037a2.96 2.96 0 0 0 2.372 2.9 2.983 2.983 0 0 1-1.335.051 2.961 2.961 0 0 0 2.763 2.054A5.936 5.936 0 0 1 6 17.386a8.375 8.375 0 0 0 4.534 1.329c5.44 0 8.415-4.507 8.415-8.415 0-.128-.003-.256-.009-.383a5.986 5.986 0 0 0 1.476-1.531"/>
    </g>
</svg>
