<svg xmlns="http://www.w3.org/2000/svg" width="25" height="25" viewBox="0 0 25 25">
    <g fill="none" fill-rule="evenodd">
        <circle cx="12.5" cy="12.5" r="12" stroke="#666"/>
        <path fill="#666" d="M10.16 17.96l-1.253 1.06c-.427.36-.79.202-.818-.346l-.083-1.565A4.79 4.79 0 0 1 6 13.207v-1.414A4.792 4.792 0 0 1 10.785 7h3.43A4.79 4.79 0 0 1 19 11.793v1.414A4.792 4.792 0 0 1 14.215 18h-3.43a4.82 4.82 0 0 1-.624-.04zm3.793-5.965c.009-.538-.624-1.159-1.166-1.146-.126.003-.25.016-.297.146-.07.194.077.24.227.263.5.078.764.36.814.838.013.13.1.236.23.22.182-.02.198-.175.192-.321zm.928.21c.01-1.113-.986-2.126-2.206-2.267-.19-.022-.44-.108-.485.145-.046.265.234.238.413.277 1.22.261 1.645.687 1.846 1.847.03.169-.03.432.271.388.222-.032.142-.258.16-.39zm-2.535-3.2c-.143.02-.44-.095-.458.213-.012.207.237.173.401.197 1.976.292 2.887 1.192 3.138 3.099.024.176-.045.44.217.446.274.005.208-.256.21-.433.024-1.796-1.61-3.46-3.508-3.522zm1.987 7.745c.615.007 1.336-.562 1.544-1.126.2-.542-.223-.757-.558-1.015-.247-.19-.51-.361-.77-.536-.517-.348-.99-.375-1.376.185-.217.315-.52.328-.838.19-.875-.38-1.55-.965-1.946-1.818-.175-.377-.173-.715.237-.981.217-.142.435-.308.418-.616-.023-.402-1.041-1.745-1.443-1.887a.762.762 0 0 0-.501 0c-.943.304-1.333 1.047-.96 1.926 1.116 2.625 3.079 4.452 5.781 5.567.154.063.325.089.412.111z"/>
    </g>
</svg>
