<svg xmlns="http://www.w3.org/2000/svg" xmlns:xlink="http://www.w3.org/1999/xlink">
    <defs>
        <path id="a" d="M11.71 24.271a8.97 8.97 0 0 1-3.139-4.139c1.722-2.474 6.804-5.138 10.935-5.72.402-.058.802-.095 1.255-.119.417.864.727 1.75.924 2.64-2.034.463-3.268 2.896-3.78 3.707-.51.808-2.582 3.4-6.195 3.631zm13.253-3.088a9.01 9.01 0 0 1-3.174 3.437c.844-1.478 1.273-3.388 1.245-5.565a10.182 10.182 0 0 0-.068-1.027c1.173.35 1.751 2.103 1.997 3.155zM19.53 10.608c-1.145-1.227-2.461-2.105-3.77-2.524a9.047 9.047 0 0 1 5.498.987 2.108 2.108 0 0 1-.383.693c-.31.372-.763.656-1.345.844zm-.015 15.03a8.995 8.995 0 0 1-2.516.362 8.878 8.878 0 0 1-3.783-.839c3.329-.775 5.167-3.243 5.697-4.104.452-.735 1.382-2.635 2.954-3.04.048.397.073.734.077 1.051.06 4.692-2.106 6.348-2.43 6.57zm-5.89-16.97c.19-.076.325-.09.681-.007 1.513.353 2.746 1.032 3.966 2.188-.35.033-.715.047-1.095.037a127.872 127.872 0 0 1-2.84-.107 53.614 53.614 0 0 0-2.31-.072c-.617 0-1.108.028-1.534.089.861-.89 2.03-1.687 3.131-2.127zm11.99 10.912c-.554-1.44-1.35-2.316-2.365-2.607a2.983 2.983 0 0 0-.46-.09 12.971 12.971 0 0 0-.848-2.6c2.016.084 3.288.671 3.899 1.042.106.563.159 1.126.159 1.674 0 .867-.13 1.733-.385 2.581zm-17.413-.726A8.892 8.892 0 0 1 8 17c0-1.627.449-3.229 1.296-4.635.579-.41 1.336-.57 2.685-.57.66 0 1.46.036 2.308.075l.035.001c.823.038 1.755.08 2.825.106.109.003.216.004.322.004.622 0 1.199-.052 1.715-.154.365.442.702.915 1.002 1.41-.29.025-.564.056-.833.094-3.507.495-8.693 2.731-11.153 5.523zm14.004-9.195a9.065 9.065 0 0 1 3.237 4.235c-1.143-.476-2.474-.717-3.962-.717a1.46 1.46 0 0 0-.092.003 13.597 13.597 0 0 0-1.107-1.691c.593-.253 1.074-.597 1.43-1.025.203-.243.369-.513.494-.805z"/>
    </defs>
    <g fill="none" fill-rule="evenodd">
        <path d="M0 0h34v34H0z"/>
        <mask id="b" fill="#fff">
            <use xlink:href="#a"/>
        </mask>
        <use fill="#222" xlink:href="#a"/>
        <g fill="#222" mask="url(#b)">
            <path d="M0 0h34v34H0z"/>
        </g>
    </g>
</svg>
