<svg xmlns="http://www.w3.org/2000/svg">
    <g fill="none" fill-rule="evenodd">
        <path stroke="#222" stroke-linecap="round" stroke-linejoin="round" stroke-width="2" d="M6 20c.937 3.41 5.5 6 11 6s10.063-2.59 11-6"/>
        <path fill="#222" d="M23.5 15.95c0-.957-.383-1.82-.998-2.46a.998.998 0 0 1 1.998.01l-.018 1.218C24.482 15.978 25.609 17 27 17a.75.75 0 0 1-.75-.75l-.003-2.75c0-1.105-.951-2-2.123-2-1.026 0-1.882.685-2.081 1.596-.588-.433-1.257-.513-2.043-.513-.488 0-1.042.208-1.833.208-.931 0-1.709-.083-2.417-.375-1.147-2.853-3.475-5.344-6.583-5.875.314.49.617 1.004.833 1.551a9.36 9.36 0 0 0-2.406 3.84c.172.452.369.875.609 1.29a8.831 8.831 0 0 1 2.801-1.43c.395 1.124.496 2.427.496 3.708 0 2.985-1.233 5.75-3.1 7.582l.556.378c1.48-2.942 4.526-5.96 8.044-5.96 3.52 0 6.567 3.02 8.047 5.965l.575-.393c-1.359-1.303-2.356-3.015-2.824-5.003a3.534 3.534 0 0 0 .702-2.119"/>
        <path stroke="#222" stroke-linecap="round" stroke-linejoin="round" d="M23.5 15.95c0-.957-.383-1.82-.998-2.46a.998.998 0 0 1 1.998.01l-.018 1.218C24.482 15.978 25.609 17 27 17a.75.75 0 0 1-.75-.75l-.003-2.75c0-1.105-.951-2-2.123-2-1.026 0-1.882.685-2.081 1.596-.588-.433-1.257-.513-2.043-.513-.488 0-1.042.208-1.833.208-.931 0-1.709-.083-2.417-.375-1.147-2.853-3.475-5.344-6.583-5.875.314.49.617 1.004.833 1.551a9.36 9.36 0 0 0-2.406 3.84c.172.452.369.875.609 1.29a8.831 8.831 0 0 1 2.801-1.43c.395 1.124.496 2.427.496 3.708 0 2.985-1.233 5.75-3.1 7.582l.556.378c1.48-2.942 4.526-5.96 8.044-5.96 3.52 0 6.567 3.02 8.047 5.965l.575-.393c-1.359-1.303-2.356-3.015-2.824-5.003a3.534 3.534 0 0 0 .702-2.119z"/>
    </g>
</svg>
