<svg xmlns="http://www.w3.org/2000/svg" xmlns:xlink="http://www.w3.org/1999/xlink">
    <defs>
        <path id="a" d="M9.25 25H8.5s-.157-3.467-.319-6.791c-.162-3.324-.712-4.063-.68-5.407.017-.698.559-2.031 1.327-3.089C9.538 8.735 10.479 8 10.479 8s1.942 2.922 3.56 5.508c.905 1.445 2.03 4.024 3.399 5.675 1.079 1.302 2.426 1.88 3.139 1.88a1.836 1.836 0 0 0 1.521-.805s.745.369 1.327.436c.583.067 3.075.363 3.075 1.679 0 .571-.194 1.041-.194 1.041l-.033.336S23.328 26 19.671 26c-1.291 0-2.404-.411-3.107-1.276-.673-.828-.953-2.088-1.327-2.989-.343-.825-.789-1.504-.939-1.847C13.812 18.78 11.859 16 10.5 16c-.874 0-.935 1.336-1 2.074-.065.739-.25 6.926-.25 6.926zm15.456-7.291a.397.397 0 0 1-.023.401l-.817 1.221a.377.377 0 0 1-.313.169h-1.107a.377.377 0 0 1-.313-.169l-.816-1.221a.395.395 0 0 1-.023-.401.378.378 0 0 1 .335-.209h2.741c.142 0 .27.08.336.209z"/>
    </defs>
    <g fill="none" fill-rule="evenodd">
        <path d="M0 0h34v34H0z"/>
        <mask id="b" fill="#fff">
            <use xlink:href="#a"/>
        </mask>
        <use fill="#222" xlink:href="#a"/>
        <g fill="#222" mask="url(#b)">
            <path d="M0 0h34v34H0z"/>
        </g>
    </g>
</svg>
