<svg xmlns="http://www.w3.org/2000/svg" xmlns:xlink="http://www.w3.org/1999/xlink">
    <defs>
        <path id="a" d="M17 9.001c1.053 0 2.824.468 2.848 3.607l.009 1.084a118.107 118.107 0 0 0-5.709 0c.002-.257.004-.608.004-1.087 0-3.136 1.785-3.604 2.848-3.604zm-1.788 6.959v1.316H8.309c.402-1.801.871-3.243.871-3.243s1.55-.167 3.345-.272v-.97C12.525 8.188 15.329 7.5 17 7.5c1.671 0 4.475.688 4.475 5.291v.97c1.795.105 3.345.272 3.345.272s.469 1.442.871 3.243h-6.903V15.96h-3.576zM7.5 24.45c1.071.062 1.925.946 1.972 2.05H8.3c-.567 0-.773-.86-.8-2.05zm18.64-4.66c.135 1.096.286 2.384.341 3.538-1.674.073-3.014 1.454-3.062 3.172H10.581c-.048-1.718-1.389-3.1-3.063-3.172.056-1.154.206-2.442.343-3.537.057-.463.133-.93.218-1.392h7.133v1.316h3.576V18.4h7.132c.086.461.162.93.22 1.392zm-1.612 6.71c.046-1.104.9-1.989 1.972-2.05-.027 1.191-.234 2.05-.8 2.05h-1.172z"/>
    </defs>
    <g fill="none" fill-rule="evenodd">
        <path d="M0 0h34v34H0z"/>
        <mask id="b" fill="#fff">
            <use xlink:href="#a"/>
        </mask>
        <use fill="#222" xlink:href="#a"/>
        <g fill="#222" mask="url(#b)">
            <path d="M0 0h34v34H0z"/>
        </g>
    </g>
</svg>
