<svg xmlns="http://www.w3.org/2000/svg" xmlns:xlink="http://www.w3.org/1999/xlink">
    <defs>
        <path id="a" d="M12.687 15.3c.557-.408 1.321-1.153 1.321-2.189 0-1.534-1.494-8.22-1.494-8.22.958-.54 1.987-.89 1.987-.89s.231.451.792.82c.658.431 1.262.467 1.707.467.445 0 1.049-.036 1.707-.467.561-.369.792-.82.792-.82s1.029.35 1.987.89c0 0-1.494 6.686-1.494 8.22 0 1.035.763 1.781 1.32 2.19a1.816 1.816 0 0 0-.517.135c-.315.146-.583.35-.769.513-.313-.195-.842-.4-1.583-.269a2.9 2.9 0 0 0-1.443.716 2.899 2.899 0 0 0-1.444-.716c-.738-.133-1.268.074-1.582.268a3.35 3.35 0 0 0-.769-.512 1.832 1.832 0 0 0-.518-.136zm6.987 1.345l1.52 12.828c-.507.193-1.74.527-4.194.527-2.52 0-3.753-.354-4.233-.543l1.558-12.812c.147-.111.504-.317 1.084-.212.83.15 1.239.729 1.255.75l.333.491.338-.488c.017-.024.426-.604 1.256-.753.579-.104.938.102 1.083.212zM25 26.862l-2.192.975.047.51-.951.333-1.431-12.08c.134-.129.375-.338.672-.476.118-.055.337-.08.528-.086.101.26.325.855.473 1.46.199.805 2.854 9.364 2.854 9.364zm-12.942 1.805l-.913-.32.048-.51L9 26.862s2.656-8.559 2.854-9.363c.148-.603.37-1.197.473-1.458.177.006.405.025.529.084.297.137.537.346.67.474l-1.468 12.068z"/>
    </defs>
    <g fill="none" fill-rule="evenodd">
        <path d="M0 0h34v34H0z"/>
        <mask id="b" fill="#fff">
            <use xlink:href="#a"/>
        </mask>
        <use fill="#222" xlink:href="#a"/>
        <g fill="#222" mask="url(#b)">
            <path d="M0 0h34v34H0z"/>
        </g>
    </g>
</svg>
