<svg xmlns="http://www.w3.org/2000/svg" xmlns:xlink="http://www.w3.org/1999/xlink">
    <defs>
        <path id="a" d="M17 17.642c2.114 0 4.059-1.452 4.059-1.452s-1.395-.78-2.41-.88c-.655-.067-1.164.304-1.649.304-.485 0-.994-.37-1.649-.305-1.015.101-2.41.881-2.41.881s1.945 1.452 4.059 1.452m-3.114 4.343c-1.574-.709-2.881-1.525-4.525-3.255C7.98 17.277 6 15.936 6 15.936s2.084-1.099 3.615-2.388c1.143-.962 2.561-1.763 3.593-1.967.993-.195 2.144-.095 2.761.17.632.271 1.031.732 1.031.732s.399-.46 1.031-.732c.617-.265 1.768-.365 2.761-.17 1.032.204 2.45 1.005 3.593 1.967C25.916 14.838 28 15.936 28 15.936s-1.98 1.341-3.361 2.794c-1.644 1.73-2.955 2.537-4.525 3.255-1.558.714-4.892.602-6.228 0"/>
    </defs>
    <g fill="none" fill-rule="evenodd">
        <path d="M0 0h34v34H0z"/>
        <mask id="b" fill="#fff">
            <use xlink:href="#a"/>
        </mask>
        <use fill="#222" xlink:href="#a"/>
        <g fill="#222" mask="url(#b)">
            <path d="M0 0h34v34H0z"/>
        </g>
    </g>
</svg>
